<svg width="30" height="30" viewBox="0 0 30 30" fill="none" xmlns="http://www.w3.org/2000/svg">
<path d="M27.0479 7.2194L18.4166 1.18043C16.0639 -0.467922 12.4525 -0.378012 10.1898 1.37524L2.68232 7.23439C1.18382 8.40322 0 10.8008 0 12.6889V23.0285C0 26.8497 3.1019 29.9666 6.92309 29.9666H23.0769C26.8981 29.9666 30 26.8647 30 23.0435V12.8837C30 10.8608 28.6963 8.37325 27.0479 7.2194ZM16.1239 23.9726C16.1239 24.587 15.6144 25.0965 15 25.0965C14.3856 25.0965 13.8761 24.587 13.8761 23.9726V19.4771C13.8761 18.8627 14.3856 18.3532 15 18.3532C15.6144 18.3532 16.1239 18.8627 16.1239 19.4771V23.9726Z" fill="black"/>
</svg>
